<?xml version="1.0" standalone="no"?>
<!DOCTYPE svg PUBLIC "-//W3C//DTD SVG 20010904//EN"
 "http://www.w3.org/TR/2001/REC-SVG-20010904/DTD/svg10.dtd">
<svg version="1.0" xmlns="http://www.w3.org/2000/svg"
 width="395.000000pt" height="366.000000pt" viewBox="0 0 395.000000 366.000000"
 preserveAspectRatio="xMidYMid meet">

<g transform="translate(0.000000,366.000000) scale(0.100000,-0.100000)"
fill="#000000" stroke="none">
<path d="M1538 3594 c-163 -25 -350 -101 -500 -202 -249 -169 -513 -483 -673
-801 -37 -74 -44 -96 -34 -107 9 -12 9 -13 -3 -9 -11 4 -21 -8 -36 -42 -14
-33 -17 -49 -9 -50 70 -11 87 -15 87 -23 0 -6 -25 -10 -55 -10 -53 0 -55 -1
-70 -36 -8 -20 -15 -40 -15 -44 0 -4 31 -10 69 -12 118 -6 112 -33 -7 -33 -74
0 -76 0 -88 -30 -22 -51 -21 -53 84 -59 107 -6 104 -6 251 -6 130 1 161 -5
161 -32 0 -18 -5 -19 -47 -15 -27 2 -77 9 -113 15 -36 6 -132 10 -215 9 l-149
-2 -9 -38 c-5 -21 -7 -40 -5 -42 2 -2 115 -6 251 -9 136 -3 259 -9 272 -12 21
-5 23 -9 14 -26 -10 -18 -18 -20 -67 -15 -30 3 -58 10 -61 15 -3 5 -100 9
-216 8 l-209 -1 -9 -38 c-5 -21 -8 -40 -5 -42 2 -2 127 -6 278 -9 246 -5 276
-8 288 -23 11 -15 10 -19 -7 -27 -25 -11 -111 2 -111 16 0 8 -49 9 -167 5 -93
-4 -196 -3 -230 1 l-62 8 -10 -45 c-34 -163 -45 -285 -45 -496 0 -195 2 -230
22 -309 25 -98 82 -228 133 -303 111 -161 303 -315 519 -415 97 -45 104 -48
120 -38 17 10 51 -6 47 -22 -3 -16 123 -60 288 -103 660 -170 1362 -82 1894
238 172 103 252 166 397 311 233 234 364 466 409 725 28 160 15 381 -35 566
-21 80 -79 236 -102 277 -7 13 -17 37 -23 54 -20 53 -151 267 -231 375 -148
200 -415 444 -637 582 -396 246 -952 380 -1329 321z m122 -749 c0 -8 -4 -15
-10 -15 -5 0 -10 7 -10 15 0 8 5 15 10 15 6 0 10 -7 10 -15z m-410 -76 c0 -11
-4 -17 -10 -14 -5 3 -10 13 -10 21 0 8 5 14 10 14 6 0 10 -9 10 -21z m70 -21
c0 -6 -7 -5 -15 2 -8 7 -15 17 -15 22 0 6 7 5 15 -2 8 -7 15 -17 15 -22z m48
8 c3 -12 -1 -17 -10 -14 -7 3 -15 13 -16 22 -3 12 1 17 10 14 7 -3 15 -13 16
-22z m76 -18 c-9 -14 -24 2 -24 25 1 21 1 21 15 3 8 -10 12 -23 9 -28z m156
11 c0 -10 -4 -19 -10 -19 -5 0 -10 12 -10 26 0 14 4 23 10 19 6 -3 10 -15 10
-26z m120 -15 c0 -13 -4 -24 -10 -24 -5 0 -10 14 -10 31 0 17 4 28 10 24 6 -3
10 -17 10 -31z m70 -5 c0 -10 -4 -19 -10 -19 -5 0 -10 12 -10 26 0 14 4 23 10
19 6 -3 10 -15 10 -26z m1355 18 c35 2 45 0 34 -7 -9 -5 -52 -8 -95 -6 -100 5
-104 6 -74 16 14 5 39 5 55 2 17 -4 53 -6 80 -5z m-1408 -19 c-3 -8 -6 -5 -6
6 -1 11 2 17 5 13 3 -3 4 -12 1 -19z m90 -10 c-3 -8 -6 -5 -6 6 -1 11 2 17 5
13 3 -3 4 -12 1 -19z m143 -13 c-9 -11 -16 -13 -23 -6 -7 7 -6 15 3 26 9 11
16 13 23 6 7 -7 6 -15 -3 -26z m174 6 c3 -4 -3 -16 -13 -25 -21 -19 -35 -8
-25 18 7 17 29 22 38 7z m61 -1 c4 -6 11 -8 16 -5 5 4 9 2 9 -3 0 -10 -49 -26
-56 -19 -7 6 7 37 16 37 5 0 12 -5 15 -10z m-1210 -20 c10 -11 14 -20 9 -20
-5 0 -15 9 -22 20 -7 11 -11 20 -9 20 2 0 12 -9 22 -20z m155 -42 c0 -4 -7 -8
-15 -8 -8 0 -15 5 -15 11 0 5 -4 8 -9 5 -5 -4 -7 3 -4 14 5 20 7 20 24 4 11
-9 19 -21 19 -26z m100 27 c6 -8 9 -19 5 -25 -11 -17 -22 -11 -27 15 -6 28 3
32 22 10z m249 -7 c0 -7 -4 -22 -8 -33 -8 -19 -8 -19 -15 2 -8 24 -1 43 15 43
5 0 9 -6 8 -12z m1211 2 c-20 -13 -33 -13 -25 0 3 6 14 10 23 10 15 0 15 -2 2
-10z m-990 -41 c0 -16 -4 -29 -10 -29 -5 0 -10 16 -10 36 0 21 4 33 10 29 6
-3 10 -19 10 -36z m-280 27 c0 -2 3 -11 6 -20 5 -12 0 -16 -17 -16 -12 0 -19
3 -16 7 4 3 2 12 -4 20 -9 10 -7 13 10 13 11 0 21 -2 21 -4z m183 -26 c4 -15
0 -20 -14 -20 -12 0 -19 7 -19 20 0 11 6 20 14 20 7 0 16 -9 19 -20z m36 -23
c1 -5 -3 -5 -9 -2 -5 3 -10 16 -9 28 0 21 1 21 9 2 5 -11 9 -24 9 -28z m188
-4 c-3 -10 -5 -2 -5 17 0 19 2 27 5 18 2 -10 2 -26 0 -35z m-157 17 c0 -11 -4
-20 -10 -20 -5 0 -10 9 -10 20 0 11 5 20 10 20 6 0 10 -9 10 -20z m60 0 c0
-11 -4 -20 -10 -20 -5 0 -10 9 -10 20 0 11 5 20 10 20 6 0 10 -9 10 -20z m224
-28 c-6 -14 -8 -13 -14 8 -5 16 -8 19 -9 8 -1 -22 -21 -24 -21 -3 0 21 44 38
48 18 2 -8 0 -22 -4 -31z m-55 16 c-1 -17 -2 -19 -6 -5 -2 9 -8 17 -13 17 -5
0 -11 -8 -13 -17 -4 -14 -5 -12 -6 5 -1 16 5 22 19 22 14 0 20 -6 19 -22z
m111 -4 c0 -8 -4 -14 -10 -14 -5 0 -10 9 -10 21 0 11 5 17 10 14 6 -3 10 -13
10 -21z m40 -5 c-7 -11 -14 -18 -17 -15 -8 8 5 36 17 36 7 0 7 -6 0 -21z m83
-15 c-7 -18 -43 -19 -43 -1 0 7 5 18 12 25 15 15 39 -3 31 -24z m40 11 c-3 -8
-9 -15 -14 -15 -10 0 -12 24 -3 33 11 11 24 -3 17 -18z m66 1 c8 -10 8 -16 -3
-25 -10 -9 -16 -8 -26 3 -12 15 -6 36 9 36 5 0 14 -6 20 -14z m156 -20 c0 -19
-3 -32 -7 -29 -5 2 -8 17 -8 34 0 16 3 29 8 29 4 0 7 -15 7 -34z m-105 20 c0
-2 -7 -9 -15 -16 -12 -10 -15 -10 -15 4 0 9 7 16 15 16 8 0 15 -2 15 -4z
m-1411 -30 c11 -9 9 -12 -10 -16 -13 -4 -38 -3 -56 1 -18 4 -33 3 -35 -3 -2
-5 -30 -2 -66 7 -34 9 -66 14 -71 11 -5 -3 -24 1 -42 9 -31 13 -21 14 116 9
86 -4 156 -11 164 -18z m116 4 c3 -5 18 -7 34 -4 20 4 30 1 34 -10 3 -8 2 -18
-3 -21 -6 -4 -10 1 -10 9 0 9 -4 16 -10 16 -5 0 -10 -7 -10 -15 0 -8 -4 -15
-10 -15 -5 0 -10 5 -10 10 0 6 -7 10 -16 10 -8 0 -12 -4 -9 -10 9 -14 -7 -12
-27 4 -24 18 -23 30 2 23 11 -3 18 -1 14 4 -3 5 -1 9 5 9 5 0 13 -4 16 -10z
m109 -11 c-3 -5 0 -16 6 -24 8 -10 9 -15 2 -15 -15 0 -35 38 -27 50 4 6 11 8
16 4 5 -3 7 -10 3 -15z m1336 11 c0 -5 -7 -10 -16 -10 -8 0 -12 5 -9 10 3 6
10 10 16 10 5 0 9 -4 9 -10z m165 0 c-11 -18 -40 -28 -60 -20 -19 8 -19 8 5
18 32 14 63 15 55 2z m155 5 c0 -8 -82 -47 -87 -41 -10 10 9 26 40 35 39 11
47 12 47 6z m-116 -19 c-10 -8 -21 -12 -24 -10 -5 6 21 24 34 24 6 0 1 -6 -10
-14z m166 4 c-20 -13 -43 -13 -35 0 3 6 16 10 28 10 18 0 19 -2 7 -10z m-1517
-7 c-19 -7 -16 -31 5 -36 13 -4 12 -5 -5 -6 -12 0 -25 4 -28 9 -11 17 3 40 22
39 11 0 13 -3 6 -6z m75 -21 c3 -16 -2 -22 -17 -22 -23 0 -36 16 -21 25 6 4 7
11 4 17 -4 6 1 8 12 6 11 -2 20 -13 22 -26z m105 2 c-3 -9 0 -20 8 -25 11 -7
11 -9 -2 -9 -17 0 -33 36 -23 52 9 14 24 -2 17 -18z m-55 9 c-9 -2 -19 -12
-21 -21 -3 -12 -5 -10 -6 6 -1 17 4 22 22 21 15 -1 17 -3 5 -6z m250 -21 c2
-6 -5 -12 -15 -13 -16 0 -16 -1 2 -10 16 -7 12 -8 -14 -4 -18 3 -40 5 -47 5
-8 0 -14 8 -15 18 0 14 -2 14 -9 -3 -8 -19 -9 -19 -9 2 -1 21 3 22 51 20 30
-1 53 -7 56 -15z m-131 2 c-3 -3 -12 -4 -19 -1 -8 3 -5 6 6 6 11 1 17 -2 13
-5z m192 -16 c-1 -17 -2 -19 -6 -5 -5 21 -23 23 -23 2 0 -8 -4 -15 -10 -15 -5
0 -10 9 -10 20 0 15 7 20 25 20 20 0 25 -5 24 -22z m30 -21 c1 -5 -3 -5 -9 -2
-5 3 -10 16 -9 28 0 21 1 21 9 2 5 -11 9 -24 9 -28z m22 0 c-8 -8 -11 -5 -11
9 0 27 14 41 18 19 2 -9 -1 -22 -7 -28z m159 18 c-6 -8 -8 -20 -4 -27 5 -10 4
-10 -6 -1 -14 13 -7 43 11 43 8 0 8 -4 -1 -15z m80 -15 c0 -13 -7 -20 -19 -20
-14 0 -19 6 -18 20 1 12 8 20 19 20 11 0 18 -7 18 -20z m39 3 c-7 -10 -15 -20
-16 -22 -2 -2 -3 5 -3 17 0 14 6 22 16 22 14 0 15 -3 3 -17z m63 -8 c-5 -28
-22 -24 -22 6 0 10 6 19 14 19 9 0 12 -8 8 -25z m115 -11 c2 -13 1 -15 -4 -4
-3 8 -11 19 -17 23 -7 6 -6 7 4 4 8 -2 16 -12 17 -23z m45 9 c-6 -3 -10 -9 -6
-14 3 -5 0 -9 -5 -9 -15 0 -14 27 2 33 6 2 14 2 17 -1 3 -2 -1 -7 -8 -9z
m-1604 -2 c27 -8 125 -14 198 -11 12 0 34 -4 49 -10 22 -8 25 -13 15 -24 -8
-10 -28 -14 -68 -11 -171 10 -324 35 -330 53 -5 15 86 17 136 3z m1734 -6 c11
-14 10 -25 -2 -25 -5 0 -10 8 -10 18 0 14 -2 15 -10 2 -5 -8 -22 -16 -38 -18
-30 -3 -48 10 -38 27 8 12 89 9 98 -4z m132 -6 c4 6 13 11 19 11 7 -1 1 -10
-12 -20 -25 -21 -71 -27 -71 -10 0 15 44 30 51 18 4 -7 9 -6 13 1z m125 -15
c-12 -15 -11 -16 10 -9 15 4 21 3 17 -3 -8 -14 -46 -22 -46 -10 0 5 -9 7 -20
3 -11 -3 -25 -3 -31 1 -15 9 28 33 60 34 21 0 22 -2 10 -16z m-1699 -15 c0
-11 -4 -18 -10 -14 -5 3 -7 12 -3 20 7 21 13 19 13 -6z m145 10 c4 -6 13 -8
21 -5 8 3 14 -1 14 -9 0 -8 5 -15 10 -15 6 0 10 7 10 16 0 8 5 12 10 9 6 -3
10 -13 10 -20 0 -11 -12 -14 -47 -13 -57 2 -79 14 -62 34 14 17 25 18 34 3z
m127 -7 c-16 -5 -15 -29 1 -35 8 -4 6 -6 -4 -6 -20 -1 -44 46 -26 52 7 2 19 2
26 -1 10 -4 11 -7 3 -10z m68 -13 c0 -5 -8 -9 -17 -10 -15 0 -15 -2 2 -9 19
-8 19 -9 -2 -9 -27 -1 -38 15 -23 34 12 14 40 10 40 -6z m165 -15 c1 -13 -2
-24 -6 -24 -9 0 -19 41 -13 52 9 14 19 -1 19 -28z m-114 17 c-7 -5 -17 -15
-22 -22 -6 -10 -9 -8 -9 9 0 16 6 22 23 22 16 0 18 -3 8 -9z m1629 -1 c-20
-13 -70 -13 -70 0 0 6 19 10 43 10 31 0 38 -3 27 -10z m-1449 -9 c-7 -5 -17
-15 -22 -22 -6 -10 -9 -8 -9 9 0 16 6 22 23 22 16 0 18 -3 8 -9z m67 -19 c3
-17 -2 -22 -17 -22 -25 0 -29 30 -3 31 15 0 14 2 -3 10 l-20 9 20 -3 c12 -1
21 -11 23 -25z m1552 18 c-20 -13 -43 -13 -35 0 3 6 16 10 28 10 18 0 19 -2 7
-10z m-1491 -22 c-1 -17 -2 -19 -6 -5 -2 9 -8 17 -13 17 -5 0 -11 -8 -13 -17
-4 -14 -5 -12 -6 5 -1 16 5 22 19 22 14 0 20 -6 19 -22z m43 13 c-11 -7 -10
-9 3 -15 9 -3 13 -11 10 -16 -10 -17 -28 -6 -32 18 -2 16 2 22 15 22 13 0 14
-2 4 -9z m76 -17 c2 -15 -4 -23 -17 -27 -18 -4 -21 0 -21 25 0 23 4 29 18 26
9 -2 18 -13 20 -24z m-373 6 c3 -5 1 -10 -4 -10 -6 0 -11 5 -11 10 0 6 2 10 4
10 3 0 8 -4 11 -10z m435 -10 c0 -11 -3 -20 -8 -20 -4 0 -13 9 -20 20 -11 18
-10 20 8 20 13 0 20 -7 20 -20z m51 11 c-7 -5 -17 -15 -22 -22 -6 -10 -9 -8
-9 9 0 16 6 22 23 22 16 0 18 -3 8 -9z m59 -6 c10 -12 9 -15 -6 -15 -16 0 -17
-2 -4 -10 13 -8 13 -10 -2 -10 -21 0 -32 16 -24 35 7 19 20 19 36 0z m109 -5
c-6 -5 -9 -15 -6 -24 4 -9 4 -16 1 -16 -7 0 -22 44 -18 52 3 4 12 4 20 1 12
-4 13 -8 3 -13z m114 -3 c18 -7 24 -37 7 -37 -5 0 -10 7 -10 15 0 21 -18 19
-23 -2 -3 -10 -5 -2 -6 17 0 19 3 30 7 24 4 -6 15 -13 25 -17z m-164 -9 c-1
-17 -2 -19 -6 -5 -2 9 -8 17 -13 17 -5 0 -11 -8 -13 -17 -4 -14 -5 -12 -6 5
-1 16 5 22 19 22 14 0 20 -6 19 -22z m361 -5 c15 9 22 9 32 -1 16 -16 9 -21
-40 -27 -49 -6 -68 16 -36 40 17 12 19 11 22 -5 3 -16 6 -18 22 -7z m-133 0
c4 -11 -26 -27 -35 -19 -2 3 -2 12 2 21 6 18 27 16 33 -2z m63 -13 c0 -21 -19
-28 -21 -7 0 9 -2 9 -6 -1 -2 -6 -9 -9 -14 -6 -6 3 -2 12 8 20 25 19 33 17 33
-6z m248 5 c1 -5 -3 -10 -10 -11 -7 -2 -23 -6 -35 -10 -17 -5 -23 -2 -23 9 0
8 5 17 11 19 19 6 54 2 57 -7z m-1905 -11 c28 -9 20 -34 -11 -34 -43 0 -164
28 -176 40 -8 9 11 10 79 5 50 -3 98 -8 108 -11z m1805 2 c-7 -8 -16 -12 -21
-9 -11 7 2 23 19 23 12 0 12 -2 2 -14z m157 -6 c-4 -7 3 -7 20 0 38 15 50 12
34 -6 -12 -15 -11 -16 10 -9 15 4 21 3 17 -3 -8 -14 -46 -22 -46 -10 0 6 -7 7
-16 4 -9 -4 -23 -1 -30 5 -14 12 -10 29 7 29 6 0 7 -4 4 -10z m-1708 -17 c3
-7 9 -10 14 -7 5 3 9 1 9 -5 0 -18 -128 -7 -148 12 -16 17 -14 18 51 16 47 -2
71 -7 74 -16z m275 -1 c-7 -2 -12 -13 -13 -25 0 -21 -1 -21 -10 1 -11 29 -4
43 18 35 11 -4 13 -8 5 -11z m-70 -12 c19 -18 20 -20 4 -26 -10 -4 -23 -1 -29
5 -9 9 -7 11 8 6 19 -6 19 -6 3 8 -18 14 -23 27 -13 27 3 0 15 -9 27 -20z
m1773 10 c-3 -5 -26 -10 -51 -10 -24 0 -44 5 -44 10 0 6 23 10 51 10 31 0 48
-4 44 -10z m-1570 -10 c5 -8 11 -7 21 1 12 10 18 9 32 -4 15 -16 15 -17 -8
-18 -23 0 -23 -1 -5 -9 16 -7 17 -9 3 -9 -9 -1 -20 4 -24 10 -4 8 -9 7 -15 -2
-6 -11 -9 -9 -15 5 -5 14 -9 15 -15 4 -7 -10 -9 -8 -10 7 l0 20 -9 -20 c-8
-19 -9 -19 -9 3 -1 17 5 22 23 22 14 0 28 -5 31 -10z m125 -26 c0 -8 -4 -14
-10 -14 -5 0 -10 7 -10 15 0 21 -18 19 -23 -2 -4 -14 -5 -13 -6 4 0 12 5 23
12 26 15 6 37 -11 37 -29z m281 -2 c4 -18 3 -32 -2 -32 -5 0 -9 1 -9 3 0 1 -4
17 -9 35 -7 25 -7 32 2 29 6 -2 14 -18 18 -35z m-242 8 l7 25 6 -23 c4 -15 2
-25 -7 -28 -21 -8 -35 4 -34 29 0 21 1 21 11 -3 l11 -25 6 25z m131 -1 c0 -4
-10 -14 -22 -20 -21 -11 -22 -11 -10 4 8 9 11 21 7 26 -3 7 0 8 9 5 9 -3 16
-10 16 -15z m170 -11 l0 -33 -13 25 c-9 17 -10 27 -3 32 16 11 16 11 16 -24z
m113 5 c-19 -7 -16 -33 5 -34 11 0 12 -2 4 -6 -21 -8 -44 17 -31 33 6 8 17 14
23 13 7 0 6 -2 -1 -6z m47 -33 c5 0 14 8 19 18 9 15 10 14 11 -6 0 -19 -5 -23
-22 -20 -13 2 -23 10 -24 18 0 9 1 10 3 3 3 -7 8 -13 13 -13z m74 22 c-6 -4
-14 -14 -17 -22 -4 -10 -6 -8 -6 8 -1 15 5 22 17 22 10 0 13 -3 6 -8z m59 1
c-7 -3 -13 -11 -13 -19 0 -8 -4 -14 -10 -14 -5 0 -10 8 -10 18 0 11 8 18 23
19 12 0 16 -1 10 -4z m65 -11 c2 -7 -5 -12 -15 -12 -15 0 -16 -2 -3 -10 9 -6
10 -10 3 -10 -16 0 -26 18 -19 36 7 17 27 15 34 -4z m101 -3 c-8 -5 -10 -12
-3 -21 5 -8 1 -5 -8 5 -20 22 -15 39 8 30 12 -4 13 -8 3 -14z m-42 -14 c2 -17
1 -17 -3 -2 -6 19 -31 17 -26 -2 1 -6 -2 -11 -8 -11 -5 0 -10 9 -10 21 0 28
44 23 47 -6z m169 3 c7 -10 -20 -38 -38 -38 -4 0 -8 11 -8 25 0 18 5 25 19 25
11 0 23 -5 27 -12z m52 -8 c2 -10 -5 -16 -18 -16 -11 0 -20 4 -20 8 0 4 6 8
13 8 8 0 7 4 -3 11 -12 8 -12 10 5 7 11 -2 21 -10 23 -18z m62 11 c0 -4 11 -6
25 -3 15 2 25 0 25 -7 0 -7 -4 -9 -10 -6 -5 3 -10 -2 -10 -11 0 -14 -3 -15
-12 -6 -17 17 -29 15 -22 -3 4 -8 1 -15 -5 -15 -6 0 -11 6 -11 13 0 9 -2 9 -9
-1 -6 -10 -10 -7 -13 12 -3 14 0 27 6 30 19 8 36 6 36 -3z m-1822 -22 c13 -5
22 -15 19 -22 -7 -20 -76 -14 -237 20 l-35 7 35 6 c45 7 188 0 218 -11z m2138
5 c50 0 97 -5 104 -9 8 -5 32 -8 55 -6 26 1 37 -1 30 -8 -14 -13 -65 -25 -65
-15 0 5 -45 9 -99 9 -55 0 -97 3 -94 8 3 5 -7 7 -23 4 -16 -3 -51 -9 -79 -12
-49 -6 -50 -6 -26 11 27 19 81 34 96 25 6 -3 51 -6 101 -7z m-1893 -23 c7 -7
15 -7 24 0 14 12 17 1 5 -18 -11 -17 -127 -10 -146 10 -9 9 -16 18 -16 21 0 9
123 -3 133 -13z m278 12 c-11 -5 -11 -7 0 -14 10 -6 11 -9 2 -9 -7 0 -13 -8
-14 -17 0 -15 -2 -15 -8 2 -11 26 -3 45 18 44 12 0 12 -2 2 -6z m-76 -23 c3
-5 2 -10 -4 -10 -5 0 -13 5 -16 10 -3 6 -2 10 4 10 5 0 13 -4 16 -10z m214
-24 c0 -20 -1 -20 -9 -1 -6 14 -9 15 -9 5 -1 -21 -41 -20 -41 0 0 23 7 28 35
22 18 -3 25 -11 24 -26z m-82 18 c-3 -3 -12 -4 -19 -1 -8 3 -5 6 6 6 11 1 17
-2 13 -5z m139 -7 c4 -4 -3 -7 -16 -7 -23 0 -23 0 -4 -16 17 -14 17 -15 1 -10
-10 3 -21 6 -23 6 -2 0 -4 9 -4 20 0 14 6 19 20 17 11 -2 23 -6 26 -10z m62
-17 c2 -14 0 -21 -5 -17 -4 5 -8 14 -8 20 0 18 -23 19 -28 0 -4 -14 -5 -13 -6
5 -2 34 43 27 47 -8z m42 -5 c6 4 8 11 5 16 -4 5 -1 9 4 9 6 0 11 -9 11 -21 0
-32 -44 -22 -47 11 l-3 25 10 -23 c5 -13 14 -20 20 -17z m119 22 c11 -14 -3
-37 -23 -37 -6 0 -3 7 7 14 18 14 18 15 0 25 -10 6 -13 11 -7 11 6 0 16 -6 23
-13z m123 -17 c3 -16 1 -30 -3 -30 -4 0 -9 14 -11 30 -3 17 -1 30 3 30 4 0 9
-13 11 -30z m1798 21 c17 -5 21 -9 12 -14 -16 -11 -282 3 -282 14 0 11 234 10
270 0z m-2390 -11 c0 -5 -10 -10 -22 -10 -19 0 -20 2 -8 10 19 13 30 13 30 0z
m650 -20 c0 -11 -2 -20 -4 -20 -2 0 -6 9 -9 20 -3 11 -1 20 4 20 5 0 9 -9 9
-20z m112 8 c-17 -17 -15 -26 6 -31 15 -4 15 -5 0 -6 -9 0 -20 4 -23 9 -9 15
2 40 17 40 9 0 9 -3 0 -12z m48 -13 c0 -21 18 -19 23 3 3 12 5 11 6 -6 1 -19
-3 -23 -21 -20 -23 3 -39 38 -19 38 6 0 11 -7 11 -15z m81 6 c-7 -5 -17 -15
-22 -22 -6 -10 -9 -8 -9 9 0 16 6 22 23 22 16 0 18 -3 8 -9z m57 -3 c-9 -7
-18 -20 -21 -28 -4 -10 -6 -8 -6 7 -1 20 10 30 33 32 6 1 3 -5 -6 -11z m57
-17 c-14 -2 -15 -5 -4 -12 11 -7 10 -9 -4 -9 -10 0 -20 7 -24 16 -8 21 17 36
36 21 12 -10 11 -13 -4 -16z m114 9 c-7 -5 -9 -16 -5 -26 4 -13 0 -11 -13 6
-23 29 -19 40 10 33 14 -4 17 -8 8 -13z m-50 -12 c-1 -17 -2 -19 -6 -5 -2 9
-8 17 -13 17 -5 0 -11 -8 -13 -17 -4 -14 -5 -12 -6 5 -1 16 5 22 19 22 14 0
20 -6 19 -22z m-359 2 c0 -5 -2 -10 -4 -10 -3 0 -8 5 -11 10 -3 6 -1 10 4 10
6 0 11 -4 11 -10z m586 -1 c6 -10 -25 -25 -49 -24 -10 0 -22 7 -27 15 -8 13
-10 12 -10 -3 0 -10 -4 -15 -10 -12 -5 3 -10 12 -10 20 0 10 14 14 50 13 28
-1 53 -5 56 -9z m54 -1 c0 -6 3 -8 7 -5 3 4 12 -1 19 -11 13 -16 13 -16 14 3
0 15 3 16 12 7 17 -17 -5 -37 -29 -27 -10 5 -21 7 -25 7 -5 -1 -8 6 -8 16 -1
15 -2 15 -15 -2 -15 -19 -15 -19 -15 2 0 15 6 22 20 22 11 0 20 -5 20 -12z
m332 -8 c66 0 91 -4 102 -16 9 -8 16 -11 16 -5 0 6 17 11 37 11 35 0 36 -1 20
-17 -14 -15 -35 -17 -139 -14 -68 1 -124 6 -126 10 -1 4 -30 6 -65 4 -56 -4
-60 -3 -44 11 18 14 18 14 0 19 -10 2 11 3 47 0 36 -2 104 -4 152 -3z m-229
-7 c-7 -2 -19 -2 -25 0 -7 3 -2 5 12 5 14 0 19 -2 13 -5z m-1675 -32 c3 -9 7
-9 18 0 8 6 14 8 14 3 -1 -21 -18 -29 -60 -29 -78 2 -90 4 -90 21 0 8 -4 13
-9 9 -5 -3 -13 0 -17 6 -5 9 12 11 67 7 42 -3 75 -11 77 -17z m141 10 c15 -9
7 -31 -11 -31 -6 0 -8 3 -5 7 4 3 2 12 -4 20 -13 15 -1 17 20 4z m192 -24 c10
-37 -4 -34 -18 4 -9 22 -9 29 0 26 6 -2 14 -15 18 -30z m239 0 c0 -13 6 -29
13 -36 10 -10 9 -11 -4 -6 -17 6 -32 65 -17 65 4 0 8 -10 8 -23z m2073 6 c23
-14 -39 -20 -158 -16 -131 5 -149 8 -140 23 7 11 280 5 298 -7z m-2383 -23 c5
0 11 8 13 18 3 12 5 11 6 -6 1 -19 -3 -23 -21 -20 -14 2 -24 11 -26 23 -2 18
-2 18 8 3 6 -10 15 -18 20 -18z m196 19 c7 -11 -12 -29 -31 -29 -5 0 -4 4 4 9
7 5 10 14 7 20 -4 6 -3 11 3 11 5 0 13 -5 17 -11z m184 -26 c0 -29 -2 -29 -19
5 -10 18 -9 22 4 22 10 0 15 -9 15 -27z m115 7 c0 -7 -7 -16 -15 -18 -13 -4
-13 -3 -2 10 9 11 9 18 2 21 -6 3 -5 4 2 3 7 -2 13 -9 13 -16z m253 -24 c2 -9
-1 -16 -7 -16 -6 0 -11 7 -11 15 0 21 -18 19 -23 -2 -3 -10 -5 -3 -6 16 -1 33
0 33 22 19 12 -9 23 -23 25 -32z m-120 6 c3 -16 -2 -22 -17 -22 -22 0 -36 16
-22 24 5 4 12 0 14 -6 4 -8 6 -7 6 4 1 9 -5 19 -11 22 -7 3 -4 5 7 3 12 -1 21
-11 23 -25z m178 7 c3 -6 0 -18 -9 -26 -18 -18 -37 -9 -37 18 0 21 34 27 46 8z
m44 1 c9 13 10 13 10 0 0 -8 -5 -22 -10 -30 -9 -13 -11 -13 -20 0 -5 8 -10 22
-10 30 0 13 1 13 10 0 9 -13 11 -13 20 0z m68 -8 c2 -7 -5 -12 -15 -13 -16 0
-16 -1 2 -10 18 -8 18 -8 -5 -6 -15 1 -26 9 -28 21 -3 14 0 17 13 13 10 -5 14
-3 9 4 -4 7 -1 10 6 7 8 -2 16 -10 18 -16z m170 -8 c2 -1 -7 -8 -20 -15 -20
-11 -21 -10 -11 3 10 11 10 17 0 28 -10 11 -8 11 8 0 11 -8 22 -15 23 -16z
m216 -1 c-6 -32 -14 -44 -14 -20 0 10 -5 17 -10 17 -6 0 -5 6 2 15 20 22 27
18 22 -12z m-340 9 c-6 -4 -14 -14 -17 -22 -4 -10 -6 -8 -6 8 -1 15 5 22 17
22 10 0 13 -3 6 -8z m296 -6 c0 -2 -9 -6 -20 -9 -11 -3 -20 -1 -20 4 0 5 9 9
20 9 11 0 20 -2 20 -4z m160 -10 c0 -9 -30 -14 -35 -6 -4 6 3 10 14 10 12 0
21 -2 21 -4z m30 -8 c0 -10 2 -10 8 -1 5 8 58 9 207 3 110 -5 233 -9 273 -10
65 0 72 -2 72 -20 0 -19 -7 -20 -91 -20 -77 0 -90 2 -85 15 4 12 -3 15 -32 15
-28 0 -33 -3 -22 -10 11 -7 -5 -10 -53 -10 -51 0 -69 4 -73 15 -7 17 -109 22
-119 5 -3 -5 -39 -10 -78 -9 -59 0 -68 2 -49 11 12 6 22 15 22 20 0 4 5 8 10
8 6 0 10 -6 10 -12z m-190 -7 c0 -14 -29 -21 -36 -9 -4 7 -3 8 4 4 7 -4 12 -2
12 3 0 6 5 11 10 11 6 0 10 -4 10 -9z m-1318 -41 c3 -16 1 -30 -3 -30 -4 0 -9
14 -11 30 -3 17 -1 30 3 30 4 0 9 -13 11 -30z m-205 3 c4 -10 9 -11 19 -2 8 6
14 7 14 2 0 -21 -23 -28 -85 -25 -55 3 -65 6 -61 19 4 11 2 13 -9 10 -8 -4
-17 -2 -21 4 -4 7 20 9 66 8 50 -1 73 -6 77 -16z m343 -14 c0 -10 -6 -19 -13
-19 -20 0 -25 9 -20 30 6 24 33 15 33 -11z m-205 -9 c7 0 16 8 18 18 4 13 5
11 6 -5 1 -18 -4 -23 -24 -23 -20 0 -25 5 -24 23 1 16 2 18 6 5 2 -10 11 -18
18 -18z m561 10 c8 0 14 -9 13 -22 -1 -17 -2 -19 -6 -5 -2 9 -8 17 -13 17 -5
0 -11 -8 -13 -17 -3 -10 -5 -2 -5 17 0 19 2 29 5 23 2 -7 11 -13 19 -13z m131
-34 c-12 -31 -37 -18 -37 19 l0 36 21 -20 c13 -12 19 -26 16 -35z m1893 44 c0
-6 -11 -8 -27 -4 -40 10 -41 14 -5 14 18 0 32 -5 32 -10z m-2335 -10 c3 -5 2
-10 -4 -10 -5 0 -13 5 -16 10 -3 6 -2 10 4 10 5 0 13 -4 16 -10z m80 0 c3 -5
-2 -10 -12 -10 -15 0 -16 -2 -3 -10 13 -8 13 -10 -2 -10 -9 0 -20 5 -23 10 -8
13 3 30 20 30 8 0 17 -4 20 -10z m65 -20 c0 -14 -6 -18 -21 -15 -27 5 -33 11
-20 20 6 3 11 1 11 -5 0 -6 4 -9 10 -5 5 3 6 13 3 22 -4 11 -3 14 5 9 7 -4 12
-16 12 -26z m38 6 c-16 -31 -18 -32 -18 -4 0 15 6 25 14 25 12 0 13 -5 4 -21z
m70 -19 c13 -4 12 -5 -4 -6 -22 -1 -39 21 -26 34 4 4 8 0 10 -8 2 -9 11 -18
20 -20z m235 17 c-3 -9 0 -20 8 -25 11 -7 11 -9 -3 -9 -10 0 -18 4 -18 9 0 5
-3 16 -6 25 -4 10 -1 16 10 16 10 0 13 -6 9 -16z m287 1 c0 5 5 4 11 -2 7 -7
25 -9 40 -6 25 5 29 2 29 -15 0 -18 -6 -21 -35 -20 -22 1 -35 6 -35 15 0 19
-18 16 -23 -4 -3 -10 -5 -2 -6 17 0 26 2 31 9 20 5 -8 10 -11 10 -5z m-750 -5
c0 -5 -12 -10 -27 -9 -25 0 -26 1 -8 9 27 12 35 12 35 0z m510 -11 c0 -11 -4
-17 -10 -14 -5 3 -10 13 -10 21 0 8 5 14 10 14 6 0 10 -9 10 -21z m30 1 c0
-11 -2 -20 -4 -20 -2 0 -6 9 -9 20 -3 11 -1 20 4 20 5 0 9 -9 9 -20z m117 4
c3 -8 1 -20 -5 -26 -13 -13 -46 -2 -36 13 4 8 9 7 15 -2 7 -11 9 -10 9 3 0 9
-6 19 -12 21 -8 3 -6 6 5 6 10 1 20 -6 24 -15z m43 6 c0 -5 -2 -10 -4 -10 -3
0 -8 5 -11 10 -3 6 -1 10 4 10 6 0 11 -4 11 -10z m174 -14 c4 9 9 14 12 11 3
-3 0 -15 -7 -28 -11 -22 -12 -22 -25 -4 -18 24 -18 46 0 22 13 -16 14 -16 20
-1z m66 -1 c10 -12 9 -15 -6 -15 -16 0 -17 -2 -4 -10 13 -8 13 -10 -2 -10 -21
0 -32 16 -24 35 7 19 20 19 36 0z m47 2 c-8 -7 -17 -19 -20 -27 -3 -9 -6 -5
-6 10 -1 19 4 26 20 27 18 2 19 0 6 -10z m113 -7 c-19 -13 -30 -13 -30 0 0 6
10 10 23 10 18 0 19 -2 7 -10z m68 -12 c2 -9 -6 -22 -17 -28 -19 -10 -21 -8
-21 20 0 25 4 31 17 28 10 -2 19 -11 21 -20z m50 -6 c3 -17 -2 -22 -17 -22
-22 0 -28 14 -11 25 6 4 7 11 4 17 -4 6 -1 9 7 6 8 -3 15 -14 17 -26z m-518 8
c0 -5 -5 -10 -11 -10 -5 0 -7 5 -4 10 3 6 8 10 11 10 2 0 4 -4 4 -10z m583
-10 c3 -11 1 -20 -4 -20 -5 0 -9 7 -9 15 0 8 -4 15 -10 15 -5 0 -10 -8 -10
-17 0 -15 -2 -16 -10 -3 -15 23 -12 30 14 30 15 0 26 -7 29 -20z m457 4 c107
-4 206 -11 220 -17 l25 -10 -25 -7 c-43 -14 -119 -11 -171 6 -44 15 -59 15
-119 4 -61 -11 -121 -11 -297 2 -13 1 -23 6 -23 10 0 4 10 8 23 9 21 1 21 1
-3 10 -16 6 10 7 75 4 55 -2 188 -8 295 -11z m-630 -3 c0 -6 -4 -12 -8 -15 -5
-3 -9 1 -9 9 0 8 4 15 9 15 4 0 8 -4 8 -9z m220 -15 c0 -11 -19 -15 -25 -6 -3
5 1 10 9 10 9 0 16 -2 16 -4z m-1458 -15 c-8 -4 -13 -11 -13 -15 1 -3 1 -14 1
-23 -1 -17 -1 -17 -11 0 -14 24 -5 47 18 47 14 0 15 -2 5 -9z m-279 -15 c5 -8
10 -6 18 4 8 12 10 12 7 -5 -3 -17 -12 -20 -71 -23 -55 -2 -67 0 -67 13 0 18
-17 20 -22 3 -3 -7 -7 -5 -11 6 -6 15 0 17 66 15 39 -1 75 -7 80 -13z m2704 8
c-3 -3 -12 -4 -19 -1 -8 3 -5 6 6 6 11 1 17 -2 13 -5z m-2507 -14 c0 -5 -4
-10 -10 -10 -5 0 -10 5 -10 10 0 6 5 10 10 10 6 0 10 -4 10 -10z m215 0 c5 -7
11 -8 19 -1 8 7 17 6 26 0 12 -9 13 -11 1 -16 -11 -5 -11 -7 0 -14 10 -6 8 -9
-8 -9 -13 0 -23 6 -23 13 0 8 -3 7 -10 -3 -7 -12 -10 -11 -16 5 -7 18 -8 18
-15 -1 -7 -18 -8 -18 -8 1 -1 17 -3 17 -11 5 -8 -12 -10 -11 -10 8 0 17 6 22
24 22 14 0 28 -5 31 -10z m284 -26 c-6 -8 -16 -14 -21 -14 -7 0 -6 5 1 13 8
10 7 17 -2 26 -10 11 -8 11 11 2 19 -10 21 -15 11 -27z m122 3 c10 -37 -7 -34
-20 4 -8 23 -8 30 1 27 7 -3 15 -16 19 -31z m-484 17 c-3 -3 -12 -4 -19 -1 -8
3 -5 6 6 6 11 1 17 -2 13 -5z m201 -16 c2 -10 -1 -18 -7 -18 -6 0 -11 7 -11
15 0 8 -4 15 -10 15 -5 0 -10 -8 -10 -17 0 -15 -2 -16 -10 -3 -16 25 -12 32
17 28 17 -2 29 -10 31 -20z m32 -8 c5 0 11 8 13 18 4 13 5 11 6 -5 1 -17 -5
-23 -19 -23 -14 0 -20 6 -19 23 1 16 2 18 6 5 2 -10 8 -18 13 -18z m-350 10
c0 -5 -10 -10 -22 -10 -19 0 -20 2 -8 10 19 13 30 13 30 0z m660 -10 c0 -11
-2 -20 -4 -20 -2 0 -6 9 -9 20 -3 11 -1 20 4 20 5 0 9 -9 9 -20z m113 13 c-19
-7 -16 -31 5 -36 15 -4 15 -5 0 -6 -9 0 -20 4 -23 9 -9 15 2 40 17 39 10 0 10
-2 1 -6z m63 -18 c13 18 14 18 14 -4 0 -17 -5 -22 -22 -19 -14 2 -24 11 -26
23 -3 19 -2 19 9 1 12 -19 12 -19 25 -1z m58 7 c-6 -4 -14 -14 -17 -22 -4 -10
-6 -8 -6 8 -1 15 5 22 17 22 10 0 13 -3 6 -8z m60 0 c-6 -4 -14 -14 -17 -22
-4 -10 -6 -8 -6 8 -1 15 5 22 17 22 10 0 13 -3 6 -8z m64 -13 c3 -11 1 -11 -8
1 -10 12 -11 11 -7 -7 3 -15 1 -20 -9 -16 -15 5 -19 25 -7 37 10 10 26 2 31
-15z m32 -6 c0 -20 -3 -24 -11 -16 -7 7 -9 19 -6 27 10 24 17 19 17 -11z m28
-9 c-3 -14 -5 -12 -10 9 -3 19 -2 25 4 19 6 -6 8 -18 6 -28z m47 26 c-3 -5
-10 -10 -16 -10 -5 0 -9 5 -9 10 0 6 7 10 16 10 8 0 12 -4 9 -10z m155 -22 c0
-9 3 -18 8 -21 4 -2 0 -2 -8 1 -8 3 -30 4 -47 3 -27 -1 -33 2 -33 19 0 18 5
20 40 18 30 -2 40 -7 40 -20z m25 13 c3 -5 1 -12 -5 -16 -5 -3 -10 1 -10 9 0
18 6 21 15 7z m54 -8 c8 -14 11 -15 11 -3 0 12 3 11 11 -3 6 -9 15 -15 20 -12
5 4 7 11 4 16 -4 5 -1 9 4 9 6 0 11 -9 11 -20 0 -11 -6 -20 -12 -20 -30 0 -58
13 -58 26 0 20 -18 17 -23 -3 -4 -14 -5 -12 -6 5 -1 27 23 30 38 5z m309 1
c35 -4 40 -8 29 -18 -21 -21 -54 -28 -102 -20 -28 4 -45 11 -45 20 0 8 -11 14
-27 15 l-28 1 30 7 c30 6 61 5 143 -5z m-538 -14 c13 -8 13 -10 -2 -10 -9 0
-20 5 -23 10 -8 13 5 13 25 0z m1213 -16 c43 -13 -2 -24 -91 -23 -107 1 -143
8 -150 28 -4 11 16 12 109 6 63 -3 122 -9 132 -11z m-2623 -11 c0 -5 21 -9 47
-11 26 -1 50 -7 54 -13 4 -8 9 -7 13 2 5 11 7 11 12 1 3 -6 11 -9 17 -5 7 4
42 8 79 10 l67 2 -21 -21 c-15 -15 -23 -18 -26 -9 -3 9 -7 8 -16 -4 -10 -13
-21 -15 -67 -7 -31 5 -65 5 -75 1 -11 -3 -42 -3 -69 1 -27 4 -55 5 -62 3 -7
-3 -13 0 -13 6 0 6 6 11 13 12 10 0 10 2 0 6 -7 2 -13 8 -13 13 0 7 10 11 53
19 4 0 7 -2 7 -6z m-80 -14 c0 -5 -13 -9 -29 -9 -17 0 -33 -4 -36 -10 -8 -13
-102 -13 -110 0 -4 7 -12 7 -25 0 -25 -14 -73 -13 -106 2 l-27 13 24 6 c37 10
309 9 309 -2z m962 -33 c2 -19 0 -32 -4 -30 -4 3 -8 16 -8 29 0 13 -6 26 -12
28 -8 4 -7 6 3 6 12 1 18 -9 21 -33z m57 2 c0 -27 -2 -29 -8 -13 -5 11 -6 26
-4 33 8 21 13 13 12 -20z m-480 0 c0 -16 -2 -18 -6 -8 -3 8 -11 18 -17 22 -7
5 -4 8 7 8 11 0 17 -7 16 -22z m59 15 c-21 -5 -23 -14 -5 -32 10 -10 9 -11 -5
-6 -30 12 -21 46 11 44 13 -1 13 -2 -1 -6z m66 1 c21 -8 20 -30 0 -38 -24 -9
-47 13 -33 30 13 16 12 16 33 8z m72 -9 c11 -27 -3 -41 -14 -15 l-10 25 -10
-25 -11 -25 0 25 c-1 19 4 26 20 27 11 1 23 -5 25 -12z m104 1 c0 -2 3 -11 6
-20 4 -11 1 -16 -12 -15 -12 0 -14 3 -6 6 10 4 9 8 -5 19 -17 13 -17 13 0 14
9 0 17 -2 17 -4z m78 -19 c2 -9 -1 -17 -7 -17 -6 0 -11 6 -11 14 0 8 -6 17
-12 20 -7 3 -4 5 7 3 11 -1 21 -10 23 -20z m242 -19 c0 -18 -19 -6 -23 15 -4
22 -4 22 -15 -3 -10 -24 -11 -24 -11 -3 -1 12 5 23 12 26 12 5 37 -19 37 -35z
m34 20 c-4 -6 0 -14 7 -19 11 -7 11 -9 -2 -9 -16 0 -32 33 -22 44 9 9 24 -5
17 -16z m-124 -2 c0 -8 6 -17 13 -20 6 -3 3 -5 -8 -3 -20 2 -35 37 -16 37 6 0
11 -6 11 -14z m243 7 c-7 -2 -13 -12 -13 -21 0 -12 -3 -13 -11 -5 -14 14 -3
33 19 32 11 0 12 -3 5 -6z m67 -8 c10 -12 10 -19 2 -27 -13 -13 -46 -2 -36 13
4 8 9 7 15 -2 5 -8 9 -9 9 -3 0 5 -5 15 -12 22 -8 8 -8 12 -1 12 6 0 16 -7 23
-15z m103 -1 c-3 -9 0 -20 8 -25 11 -7 11 -9 -3 -9 -10 0 -18 4 -18 9 0 5 -3
16 -6 25 -4 10 -1 16 10 16 10 0 13 -6 9 -16z m-598 -4 c3 -5 1 -10 -4 -10 -6
0 -11 5 -11 10 0 6 2 10 4 10 3 0 8 -4 11 -10z m372 4 c-3 -3 -12 -4 -19 -1
-8 3 -5 6 6 6 11 1 17 -2 13 -5z m163 -9 c0 -8 -4 -15 -10 -15 -5 0 -10 7 -10
15 0 8 5 15 10 15 6 0 10 -7 10 -15z m250 -10 c0 -16 -27 -27 -36 -14 -3 6 -3
13 0 16 3 4 6 1 6 -6 0 -7 4 -10 10 -6 5 3 6 13 3 22 -4 11 -3 14 5 9 7 -4 12
-13 12 -21z m57 -5 c3 0 12 8 19 18 10 14 15 15 26 4 11 -11 10 -12 -4 -7 -12
5 -18 2 -18 -8 0 -9 8 -17 18 -19 9 -3 -4 -4 -30 -4 -25 1 -50 5 -54 9 -5 4 0
5 11 2 19 -6 19 -6 3 8 -10 8 -15 17 -12 20 4 3 13 0 21 -8 8 -8 17 -15 20
-15z m478 11 c75 -1 105 -9 105 -27 0 -12 -22 -14 -127 -10 -71 3 -137 8 -147
12 -19 7 -19 8 0 15 18 7 18 8 -1 8 -14 1 -16 4 -7 9 7 5 36 5 65 1 28 -4 79
-8 112 -8z m-285 -5 c0 -8 6 -17 13 -19 6 -3 -9 -4 -36 -3 -26 2 -50 6 -54 9
-3 4 -13 7 -22 7 -14 0 -14 -2 -1 -11 12 -8 12 -10 -5 -7 -11 2 -21 10 -23 19
-2 13 9 16 63 18 51 1 65 -1 65 -13z m-378 -28 c-9 -9 -12 -7 -12 12 0 19 3
21 12 12 9 -9 9 -15 0 -24z m1075 16 c29 -3 55 -9 58 -14 9 -15 -56 -22 -144
-15 -87 7 -121 17 -121 36 0 10 61 8 207 -7z m-244 -1 c-7 -2 -19 -2 -25 0 -7
3 -2 5 12 5 14 0 19 -2 13 -5z m-2512 -36 c-26 -33 -169 -50 -254 -31 -22 4
-26 9 -18 17 7 7 66 14 144 18 73 3 134 6 136 7 2 1 -2 -4 -8 -11z m301 -17
c3 -19 0 -30 -7 -30 -7 0 -10 11 -7 30 2 17 5 30 7 30 2 0 5 -13 7 -30z m-197
10 c-3 -5 -17 -10 -31 -10 -14 0 -22 4 -19 10 3 6 17 10 31 10 14 0 22 -4 19
-10z m121 -5 c-11 -8 -29 -15 -40 -15 -36 0 7 25 49 29 6 0 1 -6 -9 -14z m207
-10 c4 -8 2 -17 -3 -20 -6 -4 -10 0 -10 9 0 8 -6 17 -12 19 -8 4 -7 6 3 6 9 1
19 -6 22 -14z m133 4 c3 -5 14 -4 26 2 16 8 24 8 35 -3 12 -13 12 -16 -1 -28
-13 -10 -19 -10 -30 -1 -12 10 -20 9 -40 -4 -23 -15 -27 -15 -41 -2 -8 9 -24
14 -35 12 -21 -4 -35 9 -25 24 7 12 103 12 111 0z m108 -14 c-20 -30 -24 -31
-24 -6 0 11 8 22 18 24 9 3 18 5 20 6 1 0 -5 -10 -14 -24z m71 15 c3 -5 1 -10
-6 -10 -8 0 -8 -4 1 -15 8 -10 9 -15 2 -15 -14 0 -34 35 -25 44 9 9 21 7 28
-4z m185 0 c10 -6 11 -10 3 -10 -7 0 -13 -7 -13 -15 0 -8 5 -15 12 -15 6 0 8
-3 5 -6 -10 -11 -37 17 -37 37 0 21 8 23 30 9z m230 -14 c0 -13 6 -27 13 -29
7 -4 6 -6 -4 -6 -11 -1 -18 9 -21 29 -3 17 -1 30 4 30 4 0 8 -11 8 -24z m295
-13 c-7 -25 -8 -26 -15 -8 -4 11 -3 26 3 33 15 18 20 7 12 -25z m-1295 17 c0
-5 -7 -10 -16 -10 -8 0 -12 5 -9 10 3 6 10 10 16 10 5 0 9 -4 9 -10z m658 -13
c3 -12 -3 -17 -22 -17 -28 0 -29 1 -20 25 8 20 38 15 42 -8z m59 -2 c1 -16 1
-16 -3 -2 -3 9 -8 17 -11 17 -3 0 -12 -8 -19 -17 -12 -17 -13 -16 -14 5 0 19
5 23 22 20 14 -2 24 -11 25 -23z m531 2 c-4 -25 -38 -32 -38 -8 0 22 6 28 25
28 10 0 15 -8 13 -20z m108 7 c-3 -9 -6 -23 -7 -32 0 -12 -3 -10 -10 6 -10 25
-5 42 13 42 5 0 7 -7 4 -16z m56 -16 c-5 -31 -5 -31 -13 -9 -9 23 -5 41 10 41
4 0 5 -14 3 -32z m65 19 c0 -7 -6 -18 -14 -25 -10 -10 -13 -9 -13 6 0 19 8 32
20 32 4 0 7 -6 7 -13z m55 4 c-8 -4 -13 -11 -13 -15 1 -3 1 -14 0 -23 0 -15
-2 -15 -8 2 -11 26 -3 45 18 45 12 0 13 -2 3 -9z m53 -8 c-2 -10 -4 -25 -5
-33 -1 -9 -5 -5 -11 9 -7 18 -6 27 3 33 17 10 17 11 13 -9z m-697 -26 c12 -3
11 -5 -5 -6 -25 -1 -38 13 -26 32 5 9 8 8 11 -5 2 -9 11 -19 20 -21z m40 22
c-2 -6 3 -14 11 -17 10 -3 12 0 8 12 -4 9 -2 16 4 16 6 0 9 -8 7 -17 -2 -10
-12 -18 -23 -18 -11 0 -21 8 -23 18 -2 9 1 17 7 17 6 0 10 -5 9 -11z m116 -4
c-4 -10 0 -15 11 -15 12 0 15 5 10 18 -5 13 -3 14 6 5 13 -13 4 -33 -16 -33
-17 0 -28 17 -20 30 9 15 15 12 9 -5z m79 8 c-7 -2 -13 -12 -13 -21 0 -14 -2
-15 -9 -2 -12 18 -5 30 17 29 11 0 12 -3 5 -6z m574 -18 c9 -24 -1 -27 -15 -5
-8 13 -8 20 -2 20 6 0 13 -7 17 -15z m73 5 c3 -1 28 -3 55 -3 37 -2 50 -6 50
-17 0 -10 -9 -14 -29 -13 -16 1 -37 -2 -47 -8 -12 -6 -19 -6 -19 0 0 5 -9 8
-20 6 -11 -2 -20 0 -20 6 0 5 -4 8 -9 7 -9 -3 -11 2 -11 22 0 8 25 8 50 0z
m-940 -14 c0 -8 -4 -18 -10 -21 -5 -3 -10 3 -10 14 0 12 5 21 10 21 6 0 10 -6
10 -14z m1279 -3 c14 -3 31 -10 37 -15 7 -5 16 -7 20 -6 5 2 10 0 12 -4 3 -10
0 -10 -54 -2 -42 6 -81 9 -167 13 -24 1 -26 3 -15 16 10 12 27 14 77 10 36 -3
76 -8 90 -12z m341 1 c104 -7 121 -11 100 -25 -32 -20 -325 1 -348 26 -4 4 5
5 21 3 15 -3 27 -1 27 5 0 6 21 7 58 3 31 -4 95 -9 142 -12z m-1995 -64 c7 0
15 -5 17 -11 3 -8 10 -8 26 2 15 9 25 10 32 3 16 -16 1 -47 -19 -38 -9 4 -24
6 -33 6 -10 0 -18 7 -18 16 -1 15 -2 15 -15 -2 -14 -19 -15 -18 -14 15 0 19 3
28 6 22 2 -7 11 -13 18 -13z m205 -16 c0 -31 -3 -35 -22 -32 -30 4 -37 38 -9
45 12 3 21 9 21 14 0 5 2 9 5 9 3 0 5 -16 5 -36z m-717 14 c-6 -11 11 -10 43
2 17 7 31 7 38 1 7 -6 17 -6 26 -1 19 12 33 13 26 1 -6 -9 27 -7 66 4 l23 6
-25 -20 c-27 -22 -74 -36 -89 -27 -5 4 -22 1 -37 -4 -19 -8 -29 -8 -34 0 -4 6
-14 8 -23 4 -12 -4 -17 -1 -17 11 0 11 -5 15 -14 12 -8 -3 -43 -9 -77 -13 -47
-5 -60 -4 -54 5 4 7 17 16 29 21 26 10 126 8 119 -2z m305 3 c18 7 27 6 33 -2
6 -10 11 -10 23 0 18 15 37 6 29 -15 -3 -9 -12 -12 -24 -9 -12 4 -19 1 -19 -7
0 -8 -4 -6 -11 5 -12 20 -29 23 -29 4 0 -14 -63 -17 -77 -4 -4 5 1 15 11 23
12 9 23 11 29 5 6 -6 19 -6 35 0z m349 -17 c7 -20 -11 -38 -31 -31 -9 4 -12
13 -9 26 6 25 31 28 40 5z m123 -10 c0 -19 -28 -30 -42 -16 -8 8 -8 15 1 26
14 17 41 10 41 -10z m120 14 c0 -17 -12 -32 -27 -35 -13 -3 -18 29 -6 40 11
12 33 8 33 -5z m42 -13 c3 -14 1 -25 -3 -25 -5 0 -9 4 -9 9 0 5 -3 16 -6 25
-3 9 -2 16 4 16 5 0 12 -11 14 -25z m530 -5 c3 -16 1 -30 -3 -30 -4 0 -9 14
-11 30 -3 17 -1 30 3 30 4 0 9 -13 11 -30z m109 23 c0 -5 2 -18 5 -31 2 -13 0
-21 -5 -18 -12 8 -20 56 -10 56 5 0 9 -3 10 -7z m-762 -20 c-7 -10 -15 -20
-16 -22 -2 -2 -3 5 -3 17 0 14 6 22 16 22 14 0 15 -3 3 -17z m201 -3 c0 -11
-4 -20 -10 -20 -5 0 -7 7 -4 15 4 8 1 15 -5 15 -6 0 -11 -7 -11 -16 0 -8 -4
-13 -10 -9 -15 9 0 35 21 35 12 0 19 -7 19 -20z m30 -12 c-1 -28 -2 -30 -11
-15 -6 10 -8 25 -5 33 9 24 16 16 16 -18z m30 12 c0 -11 -2 -20 -4 -20 -2 0
-6 9 -9 20 -3 11 -1 20 4 20 5 0 9 -9 9 -20z m119 -13 c0 -21 -1 -21 -9 -2
-12 28 -12 37 0 30 6 -3 10 -16 9 -28z m61 2 c0 -10 -4 -19 -10 -19 -5 0 -10
9 -10 21 0 13 -4 18 -12 13 -7 -4 -8 -3 -4 4 10 16 36 3 36 -19z m99 17 c9
-11 8 -15 -4 -20 -10 -4 -14 -2 -9 5 4 6 0 15 -7 20 -8 5 -9 9 -3 9 6 0 17 -6
23 -14z m175 -17 c-9 -15 -20 -10 -20 10 0 15 3 17 13 9 7 -6 10 -14 7 -19z
m246 8 c0 4 6 -2 14 -12 13 -18 13 -18 24 1 11 18 11 18 12 -3 0 -16 -6 -23
-19 -23 -11 0 -23 5 -26 10 -5 8 -11 7 -20 0 -19 -16 -35 -4 -35 27 0 25 1 25
25 9 14 -9 25 -13 25 -9z m-610 -2 c0 -8 -4 -15 -10 -15 -5 0 -10 7 -10 15 0
8 5 15 10 15 6 0 10 -7 10 -15z m133 7 c2 7 7 10 11 7 3 -3 0 -14 -8 -24 -13
-18 -14 -18 -26 6 -12 21 -12 23 2 11 13 -10 17 -10 21 0z m127 -12 c0 -13 -7
-20 -20 -20 -13 0 -20 6 -19 18 0 10 3 12 6 5 7 -18 23 -16 23 2 0 8 2 15 5
15 3 0 5 -9 5 -20z m217 5 c9 -24 -1 -27 -15 -5 -8 13 -8 20 -2 20 6 0 13 -7
17 -15z m234 5 c14 -8 19 -7 19 1 0 7 7 8 18 4 9 -4 32 -8 50 -10 33 -3 107
-33 100 -40 -2 -3 -26 2 -52 10 -27 8 -52 12 -58 9 -5 -3 -15 -1 -23 6 -9 7
-15 8 -20 0 -4 -7 -12 -7 -26 1 -25 13 -40 2 -19 -12 13 -9 13 -10 0 -6 -8 2
-16 13 -18 25 -4 25 1 27 29 12z m301 -10 c4 0 12 -9 18 -19 9 -18 8 -19 -21
-11 -30 9 -79 36 -79 44 0 2 17 0 38 -5 20 -5 40 -9 44 -9z m-952 -10 c0 -5
-2 -10 -4 -10 -3 0 -8 5 -11 10 -3 6 -1 10 4 10 6 0 11 -4 11 -10z m1302 -2
c37 1 70 -3 73 -7 6 -10 -229 -12 -325 -4 -102 10 -28 23 90 16 52 -3 125 -5
162 -5z m376 -5 c54 -13 12 -23 -100 -23 -124 0 -157 7 -143 30 6 10 34 11
114 6 58 -4 116 -9 129 -13z m-2814 -47 c-5 -13 -31 -28 -66 -40 -30 -9 -20 2
25 28 49 30 48 30 41 12z m-189 -6 c-3 -5 -11 -10 -16 -10 -6 0 -7 5 -4 10 3
6 11 10 16 10 6 0 7 -4 4 -10z m249 -5 c6 -17 -13 -29 -63 -40 -43 -9 -34 7
17 35 20 10 38 19 38 20 1 0 4 -7 8 -15z m240 -16 c-9 -10 -20 -16 -25 -13 -5
3 -20 -3 -34 -12 -15 -10 -25 -12 -25 -5 0 6 5 11 10 11 6 0 10 7 10 16 0 10
6 14 14 11 8 -3 20 0 26 8 6 8 18 11 26 8 13 -5 12 -8 -2 -24z m262 -25 c-9
-23 -25 -16 -19 9 5 22 5 22 -10 2 -14 -17 -16 -17 -17 -4 0 9 10 23 23 32 20
14 22 13 25 -5 2 -11 1 -26 -2 -34z m-396 31 c-7 -8 -17 -15 -22 -15 -6 0 -5
7 2 15 7 8 17 15 22 15 6 0 5 -7 -2 -15z m562 -22 c-5 -27 -5 -27 -14 -4 -8
24 -2 45 11 36 5 -2 6 -17 3 -32z m648 14 c0 -13 5 -28 12 -35 9 -9 9 -12 0
-12 -7 0 -12 1 -12 3 0 1 -4 17 -9 35 -6 20 -6 32 0 32 5 0 9 -10 9 -23z
m-1184 -13 c-15 -14 -31 -23 -34 -20 -7 7 38 46 52 46 6 0 -2 -12 -18 -26z
m304 12 c0 -8 -4 -18 -10 -21 -5 -3 -10 1 -10 9 0 20 -14 21 -29 2 -19 -23
-51 -27 -51 -6 0 21 9 25 62 29 28 1 38 -2 38 -13z m127 -6 c-3 -11 -1 -20 4
-20 4 0 6 -7 3 -15 -4 -8 -10 -15 -16 -15 -5 0 -7 4 -4 9 4 5 -3 7 -14 4 -14
-4 -20 0 -20 10 0 29 12 47 32 47 15 0 19 -5 15 -20z m63 11 c0 -24 -13 -38
-31 -34 -21 6 -21 6 -13 27 6 17 44 23 44 7z m180 -18 c0 -22 -2 -25 -10 -13
-6 10 -10 11 -10 3 0 -7 -4 -13 -10 -13 -11 0 -14 33 -3 43 16 16 33 5 33 -20z
m119 -6 c0 -21 -1 -21 -9 -2 -7 17 -9 17 -9 3 -1 -24 -21 -23 -21 1 0 19 18
32 33 24 4 -2 7 -14 6 -26z m167 -1 c3 -32 -10 -24 -21 13 -5 17 -3 22 5 19 7
-2 14 -17 16 -32z m-246 3 c0 -11 -4 -17 -10 -14 -5 3 -10 13 -10 21 0 8 5 14
10 14 6 0 10 -9 10 -21z m140 -1 c0 -17 -3 -19 -9 -9 -5 7 -15 17 -22 22 -10
6 -8 9 9 9 16 0 22 -6 22 -22z m178 -1 c2 -9 -1 -17 -7 -17 -6 0 -8 7 -5 15 4
10 0 15 -11 15 -12 0 -15 -5 -10 -17 5 -14 3 -15 -6 -6 -6 6 -8 16 -4 23 10
16 39 8 43 -13z m58 -7 c1 -25 -3 -30 -23 -30 -20 0 -23 4 -19 28 2 15 5 28 5
30 1 1 9 2 19 2 12 0 17 -9 18 -30z m51 10 c-3 -11 -1 -20 4 -20 5 0 9 -4 9
-10 0 -5 -11 -10 -25 -10 -20 0 -25 5 -25 23 0 27 7 37 28 37 9 0 13 -7 9 -20z
m119 8 c4 -6 2 -14 -4 -16 -7 -2 -10 -8 -6 -13 8 -14 -12 -11 -25 4 -8 10 -7
17 1 25 15 15 25 15 34 0z m114 -21 c0 -20 0 -20 -15 -1 -19 25 -19 35 0 28 8
-4 15 -16 15 -27z m675 16 c106 -5 135 -10 135 -23 0 -14 -247 -7 -261 7 -16
16 -1 36 20 27 9 -4 57 -9 106 -11z m-400 -3 c3 -5 11 -10 16 -10 6 0 7 5 4
10 -8 13 31 13 56 -1 15 -7 24 -7 34 1 10 8 15 8 20 0 4 -6 13 -9 21 -6 7 3
23 -4 36 -15 l23 -19 -25 5 c-23 5 -57 9 -158 19 -31 2 -71 26 -45 26 7 0 15
-4 18 -10z m-815 -10 c0 -5 -4 -10 -10 -10 -5 0 -10 5 -10 10 0 6 5 10 10 10
6 0 10 -4 10 -10z m-1101 -79 c-65 -51 -197 -58 -214 -11 -3 8 -3 11 0 8 4 -4
25 0 48 8 23 8 43 11 45 6 3 -10 70 3 117 23 43 18 45 -2 4 -34z m71 16 c0
-14 -50 -47 -71 -47 -6 0 6 13 27 29 46 35 44 34 44 18z m120 -42 c-14 -15
-29 -21 -41 -18 -19 5 -18 8 12 39 28 29 34 32 42 18 6 -11 3 -22 -13 -39z
m396 43 c-3 -7 -7 -25 -10 -40 -7 -30 -26 -39 -26 -12 0 14 -3 14 -15 4 -8 -7
-15 -9 -15 -5 0 4 -6 3 -13 -3 -7 -7 -18 -7 -27 -2 -11 7 -11 11 -1 24 16 19
41 21 41 4 0 -7 7 -4 16 7 8 11 20 19 25 18 5 -2 9 2 9 7 0 6 4 10 10 10 5 0
8 -6 6 -12z m-451 -18 c-10 -15 -95 -54 -102 -46 -9 9 39 45 72 54 34 10 40 8
30 -8z m215 9 c0 -13 -59 -51 -69 -45 -5 4 -24 -6 -42 -21 l-34 -28 34 42 c19
23 37 40 41 38 4 -3 13 2 20 9 11 15 50 18 50 5z m98 -36 c-11 -14 -58 -18
-58 -6 0 4 10 17 22 30 20 21 22 21 34 5 9 -12 9 -21 2 -29z m482 5 c0 -9 -4
-20 -10 -23 -6 -4 -10 9 -10 32 0 28 3 34 10 23 5 -8 10 -23 10 -32z m-550 24
c0 -10 -22 -32 -32 -32 -5 0 -3 9 4 20 13 20 28 27 28 12z m258 -21 c-2 -9
-13 -17 -26 -19 -25 -4 -27 1 -12 28 12 23 43 15 38 -9z m40 -6 c-14 -31 -23
-25 -14 10 4 14 11 23 16 20 6 -3 5 -16 -2 -30z m491 -8 l-1 -32 -13 30 c-13
31 -11 50 6 40 5 -4 9 -21 8 -38z m-1494 23 c-27 -12 -43 -12 -25 0 8 5 22 9
30 9 10 0 8 -3 -5 -9z m1118 -10 c-3 -11 -7 -20 -9 -20 -2 0 -4 9 -4 20 0 11
4 20 9 20 5 0 7 -9 4 -20z m37 8 c0 -7 -5 -20 -10 -28 -8 -12 -10 -9 -10 13 0
15 5 27 10 27 6 0 10 -6 10 -12z m17 -25 c-3 -10 -5 -4 -5 12 0 17 2 24 5 18
2 -7 2 -21 0 -30z m34 6 c-9 -22 -10 -22 -10 -3 -1 11 2 24 6 27 12 12 14 0 4
-24z m124 22 c6 -10 -21 -41 -36 -41 -5 0 -9 11 -9 25 0 18 5 25 19 25 11 0
22 -4 26 -9z m34 -23 c0 -28 -2 -30 -9 -13 -12 28 -12 45 0 45 6 0 10 -15 9
-32z m181 -1 c0 -18 -2 -19 -10 -7 -13 20 -13 43 0 35 6 -3 10 -16 10 -28z
m80 7 c15 -37 12 -42 -10 -15 -22 26 -26 41 -10 41 6 0 15 -12 20 -26z m30 -7
c0 -18 -2 -19 -10 -7 -13 20 -13 43 0 35 6 -3 10 -16 10 -28z m30 5 c0 -15 -2
-15 -10 -2 -13 20 -13 33 0 25 6 -3 10 -14 10 -23z m46 11 c17 -23 17 -33 0
-33 -8 0 -17 7 -20 16 -14 36 -2 46 20 17z m74 -3 c13 -11 21 -23 18 -26 -3
-3 -16 5 -28 18 -23 23 -23 23 -17 1 3 -13 -1 -24 -9 -27 -10 -4 -14 2 -14 18
0 14 6 27 13 29 6 3 12 6 13 6 1 1 11 -8 24 -19z m50 -1 c7 -11 9 -24 5 -27
-7 -7 -35 25 -35 40 0 16 19 8 30 -13z m133 3 c3 7 6 3 6 -10 1 -22 1 -22 -26
-5 -26 17 -27 17 -20 0 3 -9 2 -17 -3 -17 -16 0 -22 21 -9 36 10 13 14 13 29
-1 14 -13 19 -13 23 -3z m205 4 c15 -8 35 -23 45 -34 18 -20 18 -20 -15 -8
-18 6 -39 15 -45 19 -7 5 -17 6 -22 3 -5 -4 -7 3 -4 14 6 24 7 24 41 6z m62
-6 c22 -11 40 -23 40 -25 0 -13 -29 -3 -60 20 -41 30 -33 32 20 5z m80 -22 c0
-15 -17 -8 -41 19 l-24 26 33 -19 c17 -10 32 -22 32 -26z m-453 10 c-3 -8 -6
-5 -6 6 -1 11 2 17 5 13 3 -3 4 -12 1 -19z m143 7 c0 -8 -2 -15 -4 -15 -2 0
-6 7 -10 15 -3 8 -1 15 4 15 6 0 10 -7 10 -15z m485 -3 c-3 -3 -11 0 -18 7 -9
10 -8 11 6 5 10 -3 15 -9 12 -12z m-1658 -80 c1 -10 -7 -29 -18 -42 -16 -22
-19 -23 -19 -6 0 16 -2 17 -17 5 -15 -13 -15 -11 1 19 9 18 21 30 26 27 5 -3
11 -1 15 5 9 14 11 13 12 -8z m274 -49 c-9 -16 -10 -15 -11 9 0 14 3 35 8 45
6 15 8 14 10 -9 2 -15 -1 -35 -7 -45z m308 24 c-1 -31 -1 -31 -9 -7 -11 36
-11 52 0 45 6 -3 10 -21 9 -38z m756 2 l20 -23 -32 23 c-38 26 -56 49 -27 33
11 -6 28 -20 39 -33z m-1680 1 c-10 -11 -20 -18 -23 -15 -3 3 3 14 13 25 10
11 20 18 23 15 3 -3 -3 -14 -13 -25z m69 17 c-2 -7 -14 -19 -27 -26 -21 -13
-21 -12 2 13 27 29 33 32 25 13z m47 -20 c-13 -12 -20 -15 -16 -7 14 26 28 41
33 35 3 -3 -5 -16 -17 -28z m375 -2 c-4 -14 -11 -25 -16 -25 -5 0 -5 13 2 31
12 35 23 31 14 -6z m195 -18 c-8 -8 -11 -4 -11 14 0 33 14 47 18 19 2 -12 -1
-27 -7 -33z m199 -2 c0 -23 -3 -27 -10 -15 -5 8 -10 29 -10 45 0 23 3 27 10
15 5 -8 10 -28 10 -45z m239 -5 c0 -11 -3 -10 -14 4 -8 11 -15 29 -15 40 1 19
2 19 15 -4 8 -14 14 -32 14 -40z m313 25 c15 -20 7 -27 -14 -13 -12 8 -22 22
-24 32 -2 15 0 15 14 4 9 -7 20 -17 24 -23z m358 9 c43 -28 47 -34 28 -34 -14
1 -88 59 -75 60 4 0 25 -12 47 -26z m-2074 -10 c-23 -16 -50 -19 -41 -3 8 12
48 29 55 22 3 -3 -4 -11 -14 -19z m134 10 c-8 -8 -23 -20 -34 -25 -15 -7 -13
-3 7 15 31 29 47 35 27 10z m100 13 c0 -2 -12 -14 -27 -28 l-28 -24 24 28 c23
25 31 32 31 24z m210 -22 c-7 -9 -15 -13 -18 -10 -3 2 1 11 8 20 7 9 15 13 18
10 3 -2 -1 -11 -8 -20z m273 5 c-3 -11 -10 -23 -16 -27 -7 -4 -8 0 -4 11 4 10
7 22 7 27 0 5 4 9 9 9 5 0 7 -9 4 -20z m112 -10 c-4 -12 -9 -19 -12 -17 -3 3
-2 15 2 27 4 12 9 19 12 17 3 -3 2 -15 -2 -27z m215 -2 c0 -23 -3 -29 -9 -19
-8 12 -4 51 5 51 2 0 4 -15 4 -32z m57 -15 c-3 -10 -5 -2 -5 17 0 19 2 27 5
18 2 -10 2 -26 0 -35z m212 -8 l0 -20 -9 20 c-5 11 -9 29 -9 40 l0 20 9 -20
c5 -11 9 -29 9 -40z m30 10 c0 -5 -4 -3 -9 5 -5 8 -9 22 -9 30 0 16 17 -16 18
-35z m86 15 c9 -16 13 -30 11 -30 -3 0 -12 14 -21 30 -9 17 -13 30 -11 30 3 0
12 -13 21 -30z m792 -23 c4 -6 -8 -2 -27 10 -19 12 -36 27 -39 34 -4 14 54
-25 66 -44z m-2042 27 c-11 -9 -29 -20 -40 -26 -17 -9 -16 -6 4 16 14 14 32
26 40 26 13 -1 12 -4 -4 -16z m618 -4 c-3 -11 -9 -20 -14 -20 -11 0 -11 3 -3
24 9 23 23 20 17 -4z m217 8 c0 -7 -5 -20 -10 -28 -8 -12 -10 -9 -10 13 0 15
5 27 10 27 6 0 10 -6 10 -12z m60 -8 c0 -11 -4 -20 -10 -20 -5 0 -10 9 -10 20
0 11 5 20 10 20 6 0 10 -9 10 -20z m57 -12 c-3 -7 -5 -2 -5 12 0 14 2 19 5 13
2 -7 2 -19 0 -25z m417 16 c11 -28 6 -39 -9 -20 -8 11 -15 23 -15 28 0 14 18
9 24 -8z m611 -22 c-5 -5 -45 22 -45 31 0 4 11 0 24 -10 13 -10 23 -19 21 -21z
m100 12 c17 -14 21 -21 10 -15 -30 14 -61 40 -50 41 6 0 24 -12 40 -26z
m-1238 -111 c-2 -16 -4 -5 -4 22 0 28 2 40 4 28 2 -13 2 -35 0 -50z m249 7 c5
-26 4 -32 -4 -25 -7 6 -15 26 -18 45 -5 26 -4 32 4 25 7 -6 15 -26 18 -45z
m134 -10 c0 -20 -2 -22 -10 -10 -5 8 -10 26 -10 40 0 20 2 22 10 10 5 -8 10
-26 10 -40z m-1190 15 c-13 -14 -31 -25 -39 -25 -11 1 -8 8 12 25 37 33 57 32
27 0z m210 18 c0 -5 -9 -19 -20 -33 -21 -27 -27 -12 -8 20 13 20 28 27 28 13z
m910 -33 c0 -13 -1 -13 -10 0 -5 8 -10 22 -10 30 0 13 1 13 10 0 5 -8 10 -22
10 -30z m620 0 c9 -16 8 -20 -6 -20 -24 0 -54 29 -47 46 6 17 38 2 53 -26z
m-1680 20 c0 -5 -5 -10 -11 -10 -5 0 -7 5 -4 10 3 6 8 10 11 10 2 0 4 -4 4
-10z m330 -5 c4 3 6 -4 3 -14 -5 -20 -43 -37 -43 -19 0 19 23 53 28 40 2 -6 7
-10 12 -7z m191 -21 c-9 -28 -9 -29 -10 -3 -1 14 2 29 6 32 11 12 13 2 4 -29z
m186 4 c-3 -7 -5 -2 -5 12 0 14 2 19 5 13 2 -7 2 -19 0 -25z m453 -3 c0 -5 -5
-3 -10 5 -5 8 -10 20 -10 25 0 6 5 3 10 -5 5 -8 10 -19 10 -25z m243 5 c10
-16 16 -30 13 -30 -2 0 -14 14 -26 30 -12 17 -18 30 -13 30 5 0 17 -13 26 -30z
m-523 -106 c0 -8 -4 -12 -10 -9 -5 3 -10 13 -10 21 0 8 5 12 10 9 6 -3 10 -13
10 -21z m-253 -6 c-3 -8 -6 -5 -6 6 -1 11 2 17 5 13 3 -3 4 -12 1 -19z m137
13 c3 -5 3 -30 -1 -56 l-6 -47 -12 37 c-13 36 -10 75 6 75 4 0 10 -4 13 -9z
m62 -6 c3 -8 1 -27 -4 -42 l-10 -28 -11 27 c-11 29 -6 58 10 58 5 0 12 -7 15
-15z m-746 -14 c-5 -11 -15 -23 -20 -26 -14 -9 -12 19 2 33 19 19 30 14 18 -7z
m38 -1 c-7 -11 -17 -20 -22 -20 -5 0 -1 9 9 20 10 11 20 20 22 20 2 0 -2 -9
-9 -20z m393 -147 c-9 -15 -10 -13 -11 13 0 17 3 34 8 38 11 12 14 -32 3 -51z
m689 -23 c0 -8 -9 -21 -19 -27 -17 -11 -21 -9 -26 8 -4 12 -1 32 6 45 11 22
13 22 25 6 7 -9 14 -24 14 -32z m67 7 c7 -4 13 -15 13 -24 0 -14 -3 -13 -22 4
-13 11 -29 18 -35 16 -7 -3 -13 0 -13 6 0 6 5 11 10 11 6 0 10 8 10 18 1 15 2
14 12 -3 6 -11 17 -24 25 -28z m-134 -37 l6 -45 -21 41 c-13 26 -18 49 -14 60
6 16 9 17 15 4 5 -8 11 -35 14 -60z m-129 14 c9 -24 7 -84 -3 -84 -13 0 -21
26 -21 66 0 35 13 46 24 18z m39 -19 c-3 -9 -8 -14 -10 -11 -3 3 -2 9 2 15 9
16 15 13 8 -4z m-663 -74 c0 -12 -20 -25 -27 -18 -7 7 6 27 18 27 5 0 9 -4 9
-9z m-80 -95 c0 -18 -49 -58 -61 -50 -14 8 -11 22 11 44 23 23 50 26 50 6z
m154 -12 c25 -9 19 -24 -9 -24 -24 0 -32 10 -18 23 8 8 8 8 27 1z"/>
<path d="M2235 2590 c-3 -5 -1 -10 4 -10 6 0 11 5 11 10 0 6 -2 10 -4 10 -3 0
-8 -4 -11 -10z"/>
<path d="M2350 2470 c0 -5 5 -10 10 -10 6 0 10 5 10 10 0 6 -4 10 -10 10 -5 0
-10 -4 -10 -10z"/>
<path d="M1116 2441 c-4 -7 -5 -15 -2 -18 9 -9 19 4 14 18 -4 11 -6 11 -12 0z"/>
<path d="M1780 2396 c0 -9 5 -16 10 -16 6 0 10 4 10 9 0 6 -4 13 -10 16 -5 3
-10 -1 -10 -9z"/>
<path d="M2350 2360 c0 -5 5 -10 10 -10 6 0 10 5 10 10 0 6 -4 10 -10 10 -5 0
-10 -4 -10 -10z"/>
<path d="M2360 2250 c0 -5 5 -10 10 -10 6 0 10 5 10 10 0 6 -4 10 -10 10 -5 0
-10 -4 -10 -10z"/>
<path d="M2853 2113 c9 -2 25 -2 35 0 9 3 1 5 -18 5 -19 0 -27 -2 -17 -5z"/>
<path d="M1960 2050 c0 -5 5 -10 10 -10 6 0 10 5 10 10 0 6 -4 10 -10 10 -5 0
-10 -4 -10 -10z"/>
<path d="M1730 1945 c0 -8 5 -15 10 -15 6 0 10 7 10 15 0 8 -4 15 -10 15 -5 0
-10 -7 -10 -15z"/>
<path d="M2140 1930 c0 -5 5 -10 10 -10 6 0 10 5 10 10 0 6 -4 10 -10 10 -5 0
-10 -4 -10 -10z"/>
<path d="M2480 1914 c0 -8 5 -12 10 -9 6 3 10 10 10 16 0 5 -4 9 -10 9 -5 0
-10 -7 -10 -16z"/>
<path d="M2710 1800 c0 -5 7 -10 16 -10 8 0 12 5 9 10 -3 6 -10 10 -16 10 -5
0 -9 -4 -9 -10z"/>
<path d="M1430 1725 c0 -8 5 -15 10 -15 6 0 10 7 10 15 0 8 -4 15 -10 15 -5 0
-10 -7 -10 -15z"/>
<path d="M1190 1620 c0 -5 5 -10 10 -10 6 0 10 5 10 10 0 6 -4 10 -10 10 -5 0
-10 -4 -10 -10z"/>
<path d="M1250 1615 c0 -8 5 -15 10 -15 6 0 10 7 10 15 0 8 -4 15 -10 15 -5 0
-10 -7 -10 -15z"/>
<path d="M2600 1580 c0 -5 5 -10 11 -10 5 0 7 5 4 10 -3 6 -8 10 -11 10 -2 0
-4 -4 -4 -10z"/>
<path d="M1436 1501 c-4 -7 -5 -15 -2 -18 9 -9 19 4 14 18 -4 11 -6 11 -12 0z"/>
<path d="M2490 1470 c0 -5 5 -10 10 -10 6 0 10 5 10 10 0 6 -4 10 -10 10 -5 0
-10 -4 -10 -10z"/>
</g>
</svg>
